<svg width="767" height="128" viewBox="0 0 767 128" fill="none" xmlns="http://www.w3.org/2000/svg">
<path d="M448.576 28.791H457.787L479.087 79.3232L501.411 28.791H503.01L525.27 79.3232L546.954 28.791H556.292L526.101 98.3848H524.374L502.242 48.5562L479.918 98.3848H478.255L448.576 28.791Z" fill="#0071C1"/>
<path d="M636.84 28.791V98.3848H628.012V86.4233C624.26 90.9862 620.038 94.4189 615.347 96.7217C610.699 99.0244 605.603 100.176 600.06 100.176C590.209 100.176 581.787 96.6151 574.794 89.4937C567.843 82.3296 564.367 73.6304 564.367 63.396C564.367 53.3748 567.885 44.8035 574.922 37.6821C581.958 30.5607 590.422 27 600.316 27C606.03 27 611.19 28.2153 615.795 30.646C620.443 33.0767 624.516 36.7227 628.012 41.584V28.791H636.84ZM601.019 35.6353C596.03 35.6353 591.425 36.8719 587.203 39.3452C582.981 41.7759 579.612 45.2087 577.096 49.6436C574.623 54.0785 573.386 58.7692 573.386 63.7158C573.386 68.6198 574.644 73.3105 577.16 77.7881C579.676 82.2656 583.045 85.7624 587.267 88.2783C591.531 90.7516 596.094 91.9883 600.955 91.9883C605.859 91.9883 610.507 90.7516 614.9 88.2783C619.292 85.805 622.661 82.4575 625.006 78.2358C627.394 74.0142 628.588 69.2594 628.588 63.9717C628.588 55.9121 625.923 49.1745 620.593 43.7588C615.305 38.3431 608.78 35.6353 601.019 35.6353Z" fill="#0071C1"/>
<path d="M654.317 28.791H663.464V38.9614C666.193 34.953 669.072 31.9679 672.1 30.0063C675.127 28.0021 678.283 27 681.566 27C684.04 27 686.684 27.7889 689.498 29.3667L684.829 36.9146C682.952 36.1043 681.374 35.6992 680.095 35.6992C677.11 35.6992 674.232 36.9359 671.46 39.4092C668.688 41.8398 666.577 45.6351 665.127 50.7949C664.019 54.7607 663.464 62.7777 663.464 74.8457V98.3848H654.317V28.791Z" fill="#0071C1"/>
<path d="M756.357 75.2935L763.904 79.2593C761.431 84.1206 758.574 88.0438 755.333 91.0288C752.092 94.0138 748.446 96.2952 744.395 97.873C740.344 99.4082 735.76 100.176 730.643 100.176C719.3 100.176 710.43 96.4658 704.033 89.0459C697.637 81.5833 694.439 73.1613 694.439 63.7798C694.439 54.9526 697.146 47.085 702.562 40.1768C709.428 31.3923 718.617 27 730.131 27C741.986 27 751.453 31.4989 758.531 40.4966C763.563 46.8504 766.122 54.7821 766.207 64.2915H703.65C703.82 72.3937 706.4 79.0461 711.389 84.2485C716.379 89.4084 722.54 91.9883 729.875 91.9883C733.415 91.9883 736.847 91.37 740.173 90.1333C743.542 88.8966 746.399 87.2549 748.745 85.208C751.09 83.1611 753.627 79.8563 756.357 75.2935ZM756.357 56.5518C755.163 51.7757 753.414 47.9591 751.111 45.1021C748.851 42.245 745.845 39.9422 742.092 38.1938C738.34 36.4455 734.395 35.5713 730.259 35.5713C723.436 35.5713 717.573 37.7674 712.669 42.1597C709.087 45.3579 706.379 50.1553 704.545 56.5518H756.357Z" fill="#0071C1"/>
<path d="M0 64C0 28.6538 28.6538 0 64 0H377C412.346 0 441 28.6538 441 64C441 99.3462 412.346 128 377 128H64C28.6538 128 0 99.3462 0 64Z" fill="#0071C1"/>
<path d="M45 28.791H53.8911V40.8164C57.0041 36.3815 60.2023 33.1406 63.4858 31.0938C68.006 28.3646 72.7607 27 77.75 27C81.1188 27 84.3171 27.661 87.3447 28.9829C90.3724 30.3049 92.8457 32.0745 94.7646 34.292C96.6836 36.4668 98.3467 39.6011 99.7539 43.6948C102.739 38.2365 106.47 34.1001 110.948 31.2856C115.425 28.4285 120.244 27 125.404 27C130.222 27 134.465 28.2153 138.133 30.646C141.843 33.0767 144.593 36.4668 146.384 40.8164C148.175 45.166 149.071 51.6904 149.071 60.3896V98.3848H139.924V60.3896C139.924 52.9271 139.391 47.8099 138.325 45.0381C137.259 42.2236 135.425 39.9635 132.824 38.2578C130.265 36.5521 127.195 35.6992 123.613 35.6992C119.263 35.6992 115.276 36.9785 111.651 39.5371C108.069 42.0957 105.447 45.5072 103.784 49.7715C102.121 54.0358 101.289 61.1572 101.289 71.1357V98.3848H92.3979V62.7563C92.3979 54.3556 91.8649 48.6628 90.7988 45.6777C89.7754 42.6501 87.9631 40.2407 85.3618 38.4497C82.7606 36.616 79.6689 35.6992 76.0869 35.6992C71.9505 35.6992 68.07 36.9572 64.4453 39.4731C60.8633 41.9465 58.1981 45.2939 56.4497 49.5156C54.744 53.7373 53.8911 60.1978 53.8911 68.897V98.3848H45V28.791Z" fill="white"/>
<path d="M201.601 27C212.305 27 221.175 30.8805 228.211 38.6416C234.607 45.7204 237.805 54.0998 237.805 63.7798C237.805 73.5024 234.415 82.0098 227.635 89.3018C220.897 96.5511 212.219 100.176 201.601 100.176C190.94 100.176 182.22 96.5511 175.44 89.3018C168.702 82.0098 165.333 73.5024 165.333 63.7798C165.333 54.1424 168.531 45.7843 174.928 38.7056C181.964 30.9019 190.855 27 201.601 27ZM201.601 35.7632C194.181 35.7632 187.806 38.5137 182.476 44.0146C177.145 49.5156 174.48 56.168 174.48 63.9717C174.48 69.0036 175.696 73.6943 178.126 78.0439C180.557 82.3936 183.84 85.7624 187.977 88.1504C192.113 90.4958 196.655 91.6685 201.601 91.6685C206.548 91.6685 211.089 90.4958 215.226 88.1504C219.362 85.7624 222.646 82.3936 225.076 78.0439C227.507 73.6943 228.722 69.0036 228.722 63.9717C228.722 56.168 226.036 49.5156 220.663 44.0146C215.332 38.5137 208.979 35.7632 201.601 35.7632Z" fill="white"/>
<path d="M248.567 28.791H258.098L281.381 79.4512L304.472 28.791H314.067L282.212 98.3848H280.613L248.567 28.791Z" fill="white"/>
<path d="M387.066 75.2935L394.614 79.2593C392.141 84.1206 389.284 88.0438 386.043 91.0288C382.802 94.0138 379.156 96.2952 375.105 97.873C371.054 99.4082 366.469 100.176 361.352 100.176C350.009 100.176 341.139 96.4658 334.743 89.0459C328.346 81.5833 325.148 73.1613 325.148 63.7798C325.148 54.9526 327.856 47.085 333.272 40.1768C340.137 31.3923 349.327 27 360.84 27C372.695 27 382.162 31.4989 389.241 40.4966C394.273 46.8504 396.831 54.7821 396.917 64.2915H334.359C334.53 72.3937 337.11 79.0461 342.099 84.2485C347.088 89.4084 353.25 91.9883 360.585 91.9883C364.124 91.9883 367.557 91.37 370.883 90.1333C374.252 88.8966 377.109 87.2549 379.454 85.208C381.8 83.1611 384.337 79.8563 387.066 75.2935ZM387.066 56.5518C385.872 51.7757 384.124 47.9591 381.821 45.1021C379.561 42.245 376.555 39.9422 372.802 38.1938C369.049 36.4455 365.105 35.5713 360.968 35.5713C354.145 35.5713 348.282 37.7674 343.378 42.1597C339.796 45.3579 337.088 50.1553 335.255 56.5518H387.066Z" fill="white"/>
</svg>
